<svg width="868" height="638" viewBox="0 0 868 638" fill="none" xmlns="http://www.w3.org/2000/svg">
<g clip-path="url(#clip0_39_338)">
<path d="M805.5 637.056V564.716C805.5 564.716 833.692 616.002 805.5 637.056Z" fill="#F1F1F1"/>
<path d="M807.242 637.044L753.952 588.122C753.952 588.122 810.797 602.038 807.242 637.044Z" fill="#F1F1F1"/>
<path d="M577.028 445.97C576.91 444.646 577.083 443.312 577.536 442.062C577.989 440.811 578.71 439.676 579.649 438.735C580.589 437.793 581.723 437.07 582.972 436.614C584.221 436.159 585.555 435.983 586.88 436.099L596.487 417.667L609.111 420.774L595.179 446.611C594.837 448.824 593.695 450.834 591.97 452.26C590.245 453.687 588.056 454.432 585.819 454.353C583.582 454.274 581.451 453.377 579.831 451.832C578.211 450.287 577.214 448.201 577.028 445.97Z" fill="#FFB7B7"/>
<path d="M634.371 625.527L623.718 625.526L618.65 584.437L634.373 584.438L634.371 625.527Z" fill="#FFB7B7"/>
<path d="M637.087 635.853L602.738 635.852V635.417C602.739 631.871 604.147 628.471 606.654 625.964C609.162 623.457 612.562 622.048 616.108 622.048L637.088 622.049L637.087 635.853Z" fill="#2F2E41"/>
<path d="M720.049 617.569L709.771 620.371L694.07 582.063L709.239 577.927L720.049 617.569Z" fill="#FFB7B7"/>
<path d="M725.386 626.816L692.247 635.853L692.133 635.434C691.2 632.013 691.665 628.361 693.424 625.283C695.183 622.204 698.093 619.951 701.514 619.018L721.755 613.498L725.386 626.816Z" fill="#2F2E41"/>
<path d="M614.923 448.033L609.609 528.727L621.024 619.261L639.721 613.554L640.509 532.663L655.466 486.018L699.75 610.602L720.021 603.123L703.292 522.232L693.845 446.262L614.923 448.033Z" fill="#2F2E41"/>
<path d="M666.584 306.334L635.099 310.977L623.756 322.195L620.234 362.502L622.421 398.204L613.303 461.163C613.303 461.163 636.233 448.434 654.003 464.368C671.774 480.303 696.639 467.184 697.15 456.584L666.584 306.334Z" fill="#CBCBCB"/>
<path d="M650.596 356.885L650.596 356.84L666.237 305.856L666.439 305.843C667.552 305.771 693.776 304.225 699.641 317.173L699.67 317.236L697.888 370.219L700.342 453.198L651.841 463.703L651.489 463.779L650.596 356.885Z" fill="#2F2E41"/>
<path d="M633.263 353.361L636.132 310.14C615.725 311.41 616.033 325.878 616.056 326.509L615.833 391.159L611.746 460.323L626.606 459.208L633.263 353.361Z" fill="#2F2E41"/>
<path d="M587.247 432.005L605.365 389.958L618.01 366.736L624.612 408.625L601.69 443.009L587.247 432.005Z" fill="#2F2E41"/>
<path d="M662.122 416.534C662.399 415.234 662.959 414.01 663.76 412.949C664.562 411.888 665.586 411.016 666.761 410.394C667.936 409.771 669.233 409.414 670.561 409.348C671.889 409.281 673.216 409.506 674.447 410.008L689.064 395.231L700.21 401.923L679.276 422.501C678.296 424.514 676.612 426.098 674.543 426.952C672.474 427.807 670.163 427.872 668.049 427.137C665.934 426.401 664.163 424.916 663.071 422.962C661.978 421.008 661.641 418.721 662.122 416.534Z" fill="#FFB7B7"/>
<path d="M674.413 404.614L704.214 371.921L684.488 343.772L686.518 330.01L698.145 315.648L698.372 315.942C699.611 317.545 728.734 355.381 729.57 369.704C730.408 384.08 688.549 420.446 686.766 421.986L686.518 422.201L674.413 404.614Z" fill="#2F2E41"/>
<path d="M648.417 302.793C660.115 302.793 669.598 293.31 669.598 281.612C669.598 269.914 660.115 260.431 648.417 260.431C636.719 260.431 627.235 269.914 627.235 281.612C627.235 293.31 636.719 302.793 648.417 302.793Z" fill="#FFB7B7"/>
<path d="M668.338 264.678L669.365 262.612L664.198 260.044C664.198 260.044 658.498 250.77 648.184 253.376C637.87 255.983 633.229 257.543 633.229 257.543L628.075 260.136L630.662 262.709L626.022 264.269L629.122 265.81L625.515 267.883L627.456 278.511C627.456 278.511 630.682 270.45 636.882 273.531C643.082 276.611 654.423 271.938 654.423 271.938L664.276 291.007C664.276 291.007 666.309 284.322 669.933 286.105C669.933 286.105 679.192 271.359 668.338 264.678Z" fill="#2F2E41"/>
<path d="M428.669 384.598L106.567 473.429L0.5 88.8313L322.602 0L428.669 384.598Z" fill="white"/>
<path d="M428.669 384.598L106.567 473.429L0.5 88.8313L322.602 0L428.669 384.598ZM110.682 466.18L421.42 380.482L318.487 7.24948L7.74953 92.9466L110.682 466.18Z" fill="#F1F1F1"/>
<path d="M252.506 172.293L171.765 194.561C170.626 194.873 169.409 194.722 168.382 194.138C167.355 193.555 166.601 192.589 166.286 191.45L144.019 110.709C143.706 109.57 143.858 108.354 144.441 107.327C145.024 106.299 145.991 105.545 147.129 105.23L227.87 82.9629C229.009 82.6502 230.225 82.802 231.253 83.3851C232.28 83.9682 233.034 84.9349 233.349 86.0732L255.616 166.814C255.929 167.953 255.777 169.17 255.194 170.197C254.611 171.224 253.644 171.978 252.506 172.293ZM147.603 106.948C146.92 107.137 146.34 107.59 145.99 108.206C145.64 108.822 145.549 109.552 145.736 110.236L168.004 190.977C168.193 191.66 168.645 192.24 169.261 192.59C169.878 192.939 170.608 193.03 171.291 192.843L252.032 170.576C252.715 170.386 253.295 169.934 253.645 169.318C253.995 168.701 254.086 167.971 253.898 167.288L231.631 86.5471C231.442 85.8641 230.99 85.284 230.373 84.9342C229.757 84.5843 229.027 84.4932 228.344 84.6809L147.603 106.948Z" fill="#E5E5E5"/>
<path d="M232.038 188.567L151.297 210.835C150.272 211.116 149.177 210.979 148.252 210.455C147.328 209.93 146.649 209.06 146.366 208.035L124.098 127.294C123.817 126.269 123.954 125.174 124.478 124.25C125.003 123.325 125.873 122.647 126.898 122.363L207.639 100.096C208.664 99.8142 209.759 99.9509 210.683 100.476C211.608 101 212.286 101.87 212.57 102.895L234.837 183.636C235.119 184.661 234.982 185.756 234.457 186.68C233.932 187.605 233.062 188.283 232.038 188.567Z" fill="#FF4D00"/>
<path d="M325.573 199.59L100.256 261.729L102.657 270.436L327.974 208.297L325.573 199.59Z" fill="#F1F1F1"/>
<path d="M331.834 222.292L106.518 284.431L108.919 293.138L334.236 230.999L331.834 222.292Z" fill="#F1F1F1"/>
<path d="M338.095 244.994L112.778 307.133L115.18 315.84L340.496 253.701L338.095 244.994Z" fill="#F1F1F1"/>
<path d="M349.114 284.949L123.797 347.088L126.198 355.795L351.515 293.656L349.114 284.949Z" fill="#F1F1F1"/>
<path d="M355.374 307.651L130.058 369.79L132.459 378.497L357.776 316.358L355.374 307.651Z" fill="#F1F1F1"/>
<path d="M361.636 330.353L136.319 392.492L138.721 401.199L364.037 339.06L361.636 330.353Z" fill="#F1F1F1"/>
<path d="M531.777 472.144H197.649V73.1887H531.777V472.144Z" fill="white"/>
<path d="M531.777 472.144H197.649V73.1887H531.777V472.144ZM203.544 466.25H525.882V79.0833H203.544V466.25Z" fill="#E5E5E5"/>
<path d="M470.942 244.695H279.908V253.727H470.942V244.695Z" fill="#FF4D00"/>
<path d="M470.942 268.178H279.908V277.21H470.942V268.178Z" fill="#FF4D00"/>
<path d="M470.942 291.662H279.908V300.694H470.942V291.662Z" fill="#FF4D00"/>
<path d="M264.377 256.428C267.632 256.428 270.271 253.789 270.271 250.534C270.271 247.278 267.632 244.639 264.377 244.639C261.121 244.639 258.482 247.278 258.482 250.534C258.482 253.789 261.121 256.428 264.377 256.428Z" fill="#FF4D00"/>
<path d="M470.942 143.505H279.908V152.537H470.942V143.505Z" fill="#E5E5E5"/>
<path d="M470.942 166.989H279.908V176.021H470.942V166.989Z" fill="#E5E5E5"/>
<path d="M470.942 190.472H279.908V199.504H470.942V190.472Z" fill="#E5E5E5"/>
<path d="M264.377 154.257C267.632 154.257 270.271 151.618 270.271 148.362C270.271 145.107 267.632 142.468 264.377 142.468C261.121 142.468 258.482 145.107 258.482 148.362C258.482 151.618 261.121 154.257 264.377 154.257Z" fill="#E5E5E5"/>
<path d="M470.942 346.867H279.908V355.899H470.942V346.867Z" fill="#E5E5E5"/>
<path d="M470.942 370.35H279.908V379.382H470.942V370.35Z" fill="#E5E5E5"/>
<path d="M470.942 393.833H279.908V402.866H470.942V393.833Z" fill="#E5E5E5"/>
<path d="M264.377 357.618C267.632 357.618 270.271 354.979 270.271 351.723C270.271 348.468 267.632 345.829 264.377 345.829C261.121 345.829 258.482 348.468 258.482 351.723C258.482 354.979 261.121 357.618 264.377 357.618Z" fill="#E5E5E5"/>
<path d="M516.177 506.498C553.895 506.498 584.471 475.922 584.471 438.205C584.471 400.488 553.895 369.912 516.177 369.912C478.46 369.912 447.884 400.488 447.884 438.205C447.884 475.922 478.46 506.498 516.177 506.498Z" fill="#FF4D00"/>
<path d="M535.098 433.848V420.781C535.1 418.295 534.612 415.833 533.662 413.536C532.712 411.239 531.319 409.151 529.561 407.393C527.804 405.634 525.718 404.24 523.421 403.288C521.125 402.336 518.663 401.846 516.177 401.846C513.691 401.846 511.23 402.336 508.933 403.288C506.637 404.24 504.55 405.634 502.793 407.393C501.036 409.151 499.642 411.239 498.692 413.536C497.742 415.833 497.254 418.295 497.256 420.781V433.848C494.727 433.962 492.339 435.047 490.589 436.876C488.839 438.706 487.862 441.14 487.86 443.672V474.551H544.494V443.672C544.493 441.14 543.515 438.706 541.765 436.876C540.015 435.047 537.628 433.962 535.098 433.848ZM516.177 408.522C519.427 408.526 522.543 409.819 524.841 412.117C527.139 414.415 528.432 417.531 528.436 420.781V433.826H503.919V420.781C503.922 417.531 505.215 414.415 507.513 412.117C509.811 409.819 512.927 408.526 516.177 408.522Z" fill="white"/>
<path d="M521.267 449.098C521.267 448.22 521.041 447.357 520.609 446.593C520.178 445.829 519.556 445.189 518.804 444.736C518.052 444.283 517.196 444.032 516.319 444.007C515.441 443.983 514.572 444.186 513.797 444.596C513.021 445.006 512.364 445.61 511.89 446.349C511.417 447.088 511.142 447.937 511.094 448.814C511.045 449.69 511.224 450.564 511.613 451.351C512.001 452.138 512.587 452.811 513.313 453.305V464.37H519.039V453.305C519.726 452.839 520.288 452.211 520.676 451.478C521.064 450.745 521.267 449.927 521.267 449.098Z" fill="#FF4D00"/>
<path d="M866.023 636.65H485.023C484.758 636.65 484.504 636.545 484.316 636.357C484.129 636.17 484.023 635.915 484.023 635.65C484.023 635.385 484.129 635.131 484.316 634.943C484.504 634.755 484.758 634.65 485.023 634.65H866.023C866.289 634.65 866.543 634.755 866.731 634.943C866.918 635.131 867.023 635.385 867.023 635.65C867.023 635.915 866.918 636.17 866.731 636.357C866.543 636.545 866.289 636.65 866.023 636.65Z" fill="#CBCBCB"/>
</g>
<defs>
<clipPath id="clip0_39_338">
<rect width="866.524" height="637.056" fill="white" transform="translate(0.5)"/>
</clipPath>
</defs>
</svg>
