<svg width="864" height="645" viewBox="0 0 864 645" fill="none" xmlns="http://www.w3.org/2000/svg">
<g clip-path="url(#clip0_29_2)">
<path d="M291.675 599.981L278.505 612.105L288.971 594.544C280.726 579.591 267.24 566.668 267.24 566.668C267.24 566.668 239.262 593.474 239.262 614.544C239.262 635.615 251.788 642.972 267.24 642.972C282.692 642.972 295.218 635.615 295.218 614.544C295.044 609.499 293.838 604.543 291.675 599.981Z" fill="#F2F2F2"/>
<path d="M275.118 612.762V613.8C275.057 625.873 273.021 635.292 269.026 641.925C268.969 642.023 268.907 642.115 268.851 642.213L268.403 641.94L267.977 641.673C272.409 634.511 273.977 624.387 274.034 613.857C274.039 613.518 274.044 613.173 274.039 612.829C274.023 608.371 273.751 603.862 273.314 599.481C273.283 599.142 273.247 598.797 273.211 598.453C272.604 592.673 271.73 587.151 270.835 582.354C270.774 582.015 270.707 581.676 270.64 581.341C269.092 573.228 267.514 567.351 267.154 566.05C267.113 565.891 267.087 565.803 267.082 565.783L267.57 565.644L267.576 565.639L268.069 565.5C268.074 565.521 268.162 565.814 268.306 566.359C268.856 568.395 270.285 573.922 271.689 581.213C271.751 581.542 271.817 581.881 271.879 582.221C272.609 586.113 273.324 590.463 273.89 595.028C274.034 596.175 274.162 597.306 274.275 598.422C274.316 598.766 274.352 599.111 274.383 599.45C274.856 604.186 275.101 608.623 275.118 612.762Z" fill="white"/>
<path d="M271.689 581.213C271.345 581.259 270.995 581.305 270.64 581.341C269.677 581.441 268.709 581.49 267.74 581.491C263.613 581.496 259.536 580.575 255.812 578.796C255.596 579.069 255.38 579.341 255.159 579.619C259.077 581.532 263.38 582.523 267.74 582.519C268.774 582.519 269.807 582.464 270.835 582.354C271.185 582.318 271.535 582.272 271.879 582.221C274.723 581.813 277.488 580.975 280.08 579.737C279.859 579.454 279.643 579.177 279.432 578.904C276.979 580.051 274.37 580.829 271.689 581.213Z" fill="white"/>
<path d="M274.275 598.422C273.92 598.442 273.566 598.453 273.211 598.453C273.103 598.458 272.99 598.458 272.882 598.458C268.409 598.458 264.003 597.376 260.039 595.306C256.074 593.235 252.67 590.236 250.115 586.565C249.909 586.869 249.703 587.172 249.503 587.48C252.166 591.195 255.676 594.221 259.741 596.309C263.807 598.397 268.311 599.486 272.882 599.486C273.026 599.486 273.17 599.486 273.314 599.481C273.674 599.476 274.028 599.465 274.383 599.45C279.873 599.169 285.166 597.312 289.628 594.103C289.464 593.799 289.299 593.496 289.129 593.193C284.792 596.344 279.63 598.161 274.275 598.422Z" fill="white"/>
<path d="M275.119 612.762C274.759 612.793 274.399 612.813 274.039 612.829C273.653 612.844 273.268 612.854 272.882 612.854C266.872 612.848 261.026 610.894 256.219 607.287C251.412 603.679 247.903 598.612 246.218 592.843C245.986 593.26 245.755 593.671 245.534 594.088C247.433 599.843 251.098 604.853 256.008 608.407C260.917 611.96 266.821 613.876 272.882 613.883C273.268 613.883 273.653 613.878 274.034 613.857C274.399 613.847 274.759 613.826 275.119 613.8C282.388 613.232 289.17 609.922 294.091 604.54C293.983 604.16 293.86 603.785 293.736 603.404C288.983 608.826 282.305 612.182 275.119 612.762Z" fill="white"/>
<path d="M785.718 618.433L767.847 619.463L787.073 612.514C790.173 595.722 787.933 577.178 787.933 577.178C787.933 577.178 749.302 580.178 735.947 596.476C722.592 612.774 727.618 626.404 739.569 636.198C751.521 645.991 765.873 648.24 779.228 631.943C782.291 627.93 784.5 623.332 785.718 618.433Z" fill="#F2F2F2"/>
<path d="M764.812 617.824L764.153 618.628C756.454 627.926 748.909 633.922 741.615 636.52C741.509 636.559 741.403 636.592 741.297 636.632L741.124 636.137L740.963 635.66C748.931 632.929 756.56 626.093 763.278 617.984C763.497 617.725 763.72 617.461 763.934 617.192C766.748 613.734 769.395 610.073 771.833 606.408C772.025 606.126 772.215 605.837 772.406 605.547C775.599 600.693 778.423 595.868 780.772 591.59C780.939 591.289 781.103 590.984 781.263 590.683C785.208 583.426 787.712 577.88 788.258 576.646C788.328 576.497 788.363 576.413 788.372 576.394L788.838 576.596L788.845 576.595L789.315 576.801C789.306 576.82 789.188 577.102 788.954 577.615C788.089 579.538 785.691 584.719 782.156 591.248C781.995 591.542 781.831 591.847 781.664 592.148C779.762 595.622 777.557 599.439 775.101 603.329C774.486 604.307 773.868 605.264 773.248 606.198C773.062 606.491 772.871 606.78 772.68 607.062C770.045 611.025 767.422 614.612 764.812 617.824Z" fill="white"/>
<path d="M782.155 591.248C781.86 591.066 781.56 590.88 781.263 590.683C780.455 590.149 779.674 589.574 778.925 588.96C775.729 586.348 773.16 583.052 771.406 579.315C771.067 579.389 770.727 579.463 770.38 579.538C772.198 583.501 774.898 586.995 778.273 589.755C779.073 590.41 779.907 591.023 780.772 591.59C781.065 591.784 781.365 591.969 781.664 592.148C784.122 593.635 786.791 594.74 789.581 595.425C789.589 595.066 789.598 594.715 789.608 594.37C786.984 593.702 784.472 592.65 782.155 591.248Z" fill="white"/>
<path d="M773.248 606.198C772.961 605.989 772.68 605.772 772.406 605.547C772.319 605.483 772.231 605.411 772.148 605.343C768.688 602.508 765.966 598.879 764.212 594.764C762.458 590.65 761.725 586.173 762.076 581.714C761.724 581.818 761.373 581.922 761.022 582.034C760.728 586.595 761.524 591.16 763.346 595.352C765.167 599.544 767.961 603.241 771.496 606.138C771.607 606.229 771.719 606.321 771.833 606.408C772.115 606.632 772.396 606.849 772.68 607.062C777.104 610.324 782.375 612.243 787.861 612.589C787.926 612.25 787.991 611.911 788.052 611.569C782.7 611.257 777.555 609.391 773.248 606.198Z" fill="white"/>
<path d="M764.811 617.824C764.514 617.62 764.222 617.408 763.934 617.192C763.626 616.959 763.321 616.723 763.023 616.478C758.379 612.664 755.095 607.447 753.664 601.61C752.232 595.773 752.73 589.63 755.082 584.099C754.639 584.275 754.2 584.446 753.765 584.628C751.586 590.284 751.245 596.482 752.79 602.342C754.335 608.203 757.687 613.427 762.371 617.273C762.669 617.518 762.971 617.758 763.278 617.984C763.567 618.207 763.858 618.419 764.153 618.628C770.137 622.795 777.48 624.534 784.697 623.49C784.855 623.128 784.997 622.759 785.143 622.387C778.03 623.567 770.738 621.931 764.811 617.824Z" fill="white"/>
<path d="M165.74 630.543L179.675 630.542L182.261 576.504L165.737 576.794L165.74 630.543Z" fill="#FFB6B6"/>
<path d="M162.185 625.993L189.628 625.992H189.629C194.267 625.992 198.715 627.835 201.995 631.115C205.275 634.394 207.118 638.843 207.118 643.481V644.049L162.186 644.051L162.185 625.993Z" fill="#2F2E41"/>
<path d="M109.407 630.543L123.342 630.542L126.104 576.504L109.404 576.794L109.407 630.543Z" fill="#FFB6B6"/>
<path d="M105.852 625.993L133.295 625.992H133.296C137.934 625.992 142.382 627.835 145.662 631.115C148.942 634.394 150.785 638.843 150.785 643.481V644.049L105.853 644.051L105.852 625.993Z" fill="#2F2E41"/>
<path d="M245.15 399.038C245.094 397.424 244.686 395.841 243.953 394.402C243.22 392.963 242.18 391.702 240.907 390.708C239.634 389.714 238.159 389.012 236.585 388.65C235.011 388.288 233.376 388.275 231.797 388.613L211.451 355.037L202.706 373.469L223.368 402.528C224.111 405.143 225.788 407.395 228.081 408.857C230.374 410.318 233.124 410.888 235.809 410.458C238.494 410.028 240.928 408.628 242.649 406.523C244.371 404.418 245.261 401.755 245.15 399.038Z" fill="#FFB6B6"/>
<path d="M75.1316 434.158C76.081 432.852 76.7324 431.353 77.04 429.767C77.3475 428.182 77.3036 426.548 76.9115 424.981C76.5193 423.414 75.7884 421.953 74.7703 420.699C73.7521 419.445 72.4714 418.43 71.0184 417.725L75.6356 378.738L57.4016 387.888L55.8126 423.508C54.7896 426.027 54.7263 428.835 55.6348 431.398C56.5433 433.961 58.3603 436.101 60.7417 437.414C63.123 438.727 65.9032 439.12 68.5553 438.52C71.2075 437.92 73.5473 436.368 75.1316 434.158Z" fill="#FFB6B6"/>
<path d="M173.911 394.664L183.779 400.51C183.779 400.51 191.797 405.614 189.101 441.115C186.404 476.617 183.182 618.852 183.182 618.852H165.69L137.361 448.944L127.025 620.693L108.612 619.773C108.612 619.773 70.9939 424.236 87.2714 403.015L173.911 394.664Z" fill="#2F2E41"/>
<path d="M81.3157 269.028C81.3157 269.028 129.304 253.6 168.022 267.984L164.852 342.668L188.735 400.924C188.735 400.924 112.809 430.376 87.5063 405.625L94.8857 347.271L81.3157 269.028Z" fill="#FF4500"/>
<path d="M155.121 276.755L165.178 267.984C165.178 267.984 171.886 267.905 177.658 278.225C183.431 288.545 193.889 321.857 193.889 321.857L227.371 378.572L212.642 388.698L159.539 314.432L155.121 276.755Z" fill="#FF4500"/>
<path d="M83.096 272.71L83.7818 268.031C83.7818 268.031 65.0838 269.414 63.5021 287.431C61.9204 305.447 56.1372 407.111 56.1372 407.111L74.6323 410.793L93.031 306.451L83.096 272.71Z" fill="#FF4500"/>
<path d="M147.918 242.036L91.8205 253.082C90.6663 253.308 89.4697 253.067 88.4931 252.412C87.5165 251.756 86.8396 250.74 86.6111 249.587L81.8497 225.407C80.1626 216.816 81.9563 207.906 86.8363 200.637C91.7164 193.368 99.2834 188.334 107.874 186.643C116.464 184.951 125.375 186.74 132.646 191.616C139.918 196.493 144.956 204.057 146.652 212.647L151.413 236.826C151.639 237.98 151.398 239.177 150.742 240.154C150.087 241.13 149.071 241.807 147.918 242.036Z" fill="#2F2E41"/>
<path d="M121.739 246.141C135.11 246.141 145.95 235.301 145.95 221.93C145.95 208.558 135.11 197.718 121.739 197.718C108.367 197.718 97.5271 208.558 97.5271 221.93C97.5271 235.301 108.367 246.141 121.739 246.141Z" fill="#FFB6B6"/>
<path d="M154.793 213.555L120.491 220.31L119.169 215.454L118.381 220.725L113.099 221.765L110.48 212.142L108.916 222.589L98.6959 224.601L98.6007 224.118C97.2703 217.321 98.6902 210.274 102.549 204.523C106.408 198.772 112.39 194.786 119.184 193.44L124.02 192.488C130.817 191.157 137.864 192.577 143.615 196.436C149.366 200.295 153.352 206.278 154.698 213.071L154.793 213.555Z" fill="#2F2E41"/>
<path d="M126.241 250.993C125.983 251.043 125.721 251.071 125.458 251.076L99.4675 251.591L91.2932 210.079L118.943 204.634L118.415 205.567C111.078 218.55 121.8 235.148 128.845 243.887C129.363 244.526 129.69 245.299 129.788 246.116C129.887 246.934 129.752 247.762 129.4 248.506C129.108 249.141 128.669 249.697 128.12 250.13C127.571 250.562 126.927 250.858 126.241 250.993Z" fill="#2F2E41"/>
<path d="M495.329 0.271851H160.347V176.161H495.329V0.271851Z" fill="#F2F2F2"/>
<path d="M495.124 0H160.143V20.3905H495.124V0Z" fill="#E6E6E6"/>
<path d="M489.059 28.6578H167.923V166.89H489.059V28.6578Z" fill="white"/>
<path d="M191.886 13.5161C193.749 13.5161 195.259 12.006 195.259 10.1431C195.259 8.28028 193.749 6.77014 191.886 6.77014C190.023 6.77014 188.513 8.28028 188.513 10.1431C188.513 12.006 190.023 13.5161 191.886 13.5161Z" fill="white"/>
<path d="M204.689 13.5161C206.552 13.5161 208.062 12.006 208.062 10.1431C208.062 8.28028 206.552 6.77014 204.689 6.77014C202.826 6.77014 201.316 8.28028 201.316 10.1431C201.316 12.006 202.826 13.5161 204.689 13.5161Z" fill="white"/>
<path d="M179.049 13.5161C180.912 13.5161 182.422 12.006 182.422 10.1431C182.422 8.28028 180.912 6.77014 179.049 6.77014C177.186 6.77014 175.676 8.28028 175.676 10.1431C175.676 12.006 177.186 13.5161 179.049 13.5161Z" fill="white"/>
<path d="M222.633 133.135C225.906 133.135 228.559 130.482 228.559 127.209C228.559 123.936 225.906 121.283 222.633 121.283C219.36 121.283 216.707 123.936 216.707 127.209C216.707 130.482 219.36 133.135 222.633 133.135Z" fill="#E4E4E4"/>
<path d="M274.981 117.615C278.254 117.615 280.908 114.962 280.908 111.689C280.908 108.416 278.254 105.763 274.981 105.763C271.708 105.763 269.055 108.416 269.055 111.689C269.055 114.962 271.708 117.615 274.981 117.615Z" fill="#E4E4E4"/>
<path d="M327.33 133.135C330.602 133.135 333.256 130.482 333.256 127.209C333.256 123.936 330.602 121.283 327.33 121.283C324.057 121.283 321.403 123.936 321.403 127.209C321.403 130.482 324.057 133.135 327.33 133.135Z" fill="#E4E4E4"/>
<path d="M379.678 54.8489C382.951 54.8489 385.604 52.1956 385.604 48.9227C385.604 45.6497 382.951 42.9965 379.678 42.9965C376.405 42.9965 373.751 45.6497 373.751 48.9227C373.751 52.1956 376.405 54.8489 379.678 54.8489Z" fill="#E4E4E4"/>
<path d="M432.026 54.1194C435.299 54.1194 437.952 51.4661 437.952 48.1932C437.952 44.9202 435.299 42.267 432.026 42.267C428.753 42.267 426.1 44.9202 426.1 48.1932C426.1 51.4661 428.753 54.1194 432.026 54.1194Z" fill="#E4E4E4"/>
<path d="M327.454 128.537L274.981 112.234L223.226 128L222.041 126.419L274.981 109.766L327.205 125.882L379.1 48.0911L379.309 48.0061L431.657 47.9141L432.395 49.7471L380.255 49.7551L327.454 128.537Z" fill="#E4E4E4"/>
<path d="M551.432 230.63H236.194V396.152H551.432V230.63Z" fill="#F2F2F2"/>
<path d="M551.239 230.374H236.002V249.563H551.239V230.374Z" fill="#E6E6E6"/>
<path d="M545.532 256.235H242.841V387.724H545.532V256.235Z" fill="white"/>
<path d="M265.874 243.093C267.627 243.093 269.048 241.672 269.048 239.919C269.048 238.166 267.627 236.745 265.874 236.745C264.121 236.745 262.7 238.166 262.7 239.919C262.7 241.672 264.121 243.093 265.874 243.093Z" fill="white"/>
<path d="M277.923 243.093C279.676 243.093 281.097 241.672 281.097 239.919C281.097 238.166 279.676 236.745 277.923 236.745C276.17 236.745 274.749 238.166 274.749 239.919C274.749 241.672 276.17 243.093 277.923 243.093Z" fill="white"/>
<path d="M253.794 243.093C255.547 243.093 256.968 241.672 256.968 239.919C256.968 238.166 255.547 236.745 253.794 236.745C252.041 236.745 250.62 238.166 250.62 239.919C250.62 241.672 252.041 243.093 253.794 243.093Z" fill="white"/>
<path d="M761.875 72.5393H387.948V268.878H761.875V72.5393Z" fill="#E6E6E6"/>
<path d="M761.646 72.236H387.719V94.997H761.646V72.236Z" fill="#FF4500"/>
<path d="M752.879 101.988H396.342V257.921H752.879V101.988Z" fill="white"/>
<path d="M423.153 87.3235C425.233 87.3235 426.918 85.6378 426.918 83.5583C426.918 81.4789 425.233 79.7932 423.153 79.7932C421.074 79.7932 419.388 81.4789 419.388 83.5583C419.388 85.6378 421.074 87.3235 423.153 87.3235Z" fill="white"/>
<path d="M437.445 87.3235C439.524 87.3235 441.21 85.6378 441.21 83.5583C441.21 81.4789 439.524 79.7932 437.445 79.7932C435.366 79.7932 433.68 81.4789 433.68 83.5583C433.68 85.6378 435.366 87.3235 437.445 87.3235Z" fill="white"/>
<path d="M408.824 87.3235C410.904 87.3235 412.589 85.6378 412.589 83.5583C412.589 81.4789 410.904 79.7932 408.824 79.7932C406.745 79.7932 405.059 81.4789 405.059 83.5583C405.059 85.6378 406.745 87.3235 408.824 87.3235Z" fill="white"/>
<path d="M577.157 136.156C576.416 136.254 575.735 136.618 575.243 137.181C574.75 137.743 574.479 138.465 574.479 139.213C574.479 139.96 574.75 140.683 575.243 141.245C575.735 141.807 576.416 142.171 577.157 142.27H703.41C704.151 142.171 704.831 141.807 705.324 141.245C705.816 140.683 706.088 139.96 706.088 139.213C706.088 138.465 705.816 137.743 705.324 137.181C704.831 136.618 704.151 136.254 703.41 136.156H577.157Z" fill="#E6E6E6"/>
<path d="M577.157 208.252C576.416 208.35 575.735 208.714 575.243 209.276C574.75 209.839 574.479 210.561 574.479 211.309C574.479 212.056 574.75 212.778 575.243 213.341C575.735 213.903 576.416 214.267 577.157 214.365H703.41C704.151 214.267 704.831 213.903 705.324 213.341C705.816 212.778 706.088 212.056 706.088 211.309C706.088 210.561 705.816 209.839 705.324 209.276C704.831 208.714 704.151 208.35 703.41 208.252H577.157Z" fill="#E6E6E6"/>
<path d="M577.157 154.497C576.416 154.595 575.735 154.959 575.243 155.521C574.75 156.084 574.479 156.806 574.479 157.553C574.479 158.301 574.75 159.023 575.243 159.585C575.735 160.148 576.416 160.512 577.157 160.61H631.484C632.225 160.512 632.905 160.148 633.398 159.585C633.89 159.023 634.162 158.301 634.162 157.553C634.162 156.806 633.89 156.084 633.398 155.521C632.905 154.959 632.225 154.595 631.484 154.497H577.157Z" fill="#E6E6E6"/>
<path d="M577.157 171.979C576.416 172.077 575.735 172.441 575.243 173.004C574.75 173.566 574.479 174.288 574.479 175.036C574.479 175.783 574.75 176.506 575.243 177.068C575.735 177.63 576.416 177.994 577.157 178.093H703.41C704.151 177.994 704.831 177.63 705.324 177.068C705.816 176.506 706.088 175.783 706.088 175.036C706.088 174.288 705.816 173.566 705.324 173.004C704.831 172.441 704.151 172.077 703.41 171.979H577.157Z" fill="#E6E6E6"/>
<path d="M577.157 190.32C576.416 190.418 575.735 190.782 575.243 191.344C574.75 191.907 574.479 192.629 574.479 193.376C574.479 194.124 574.75 194.846 575.243 195.409C575.735 195.971 576.416 196.335 577.157 196.433H631.484C632.225 196.335 632.905 195.971 633.398 195.409C633.89 194.846 634.162 194.124 634.162 193.376C634.162 192.629 633.89 191.907 633.398 191.344C632.905 190.782 632.225 190.418 631.484 190.32H577.157Z" fill="#E6E6E6"/>
<path d="M503.576 211.016C503.959 211.017 504.338 210.943 504.691 210.797C505.045 210.651 505.366 210.437 505.637 210.167C505.908 209.897 506.123 209.576 506.27 209.223C506.416 208.869 506.492 208.491 506.492 208.108C506.492 207.726 506.417 207.347 506.271 206.993C506.124 206.64 505.91 206.319 505.639 206.048C505.369 205.778 505.047 205.564 504.694 205.418C504.34 205.272 503.961 205.197 503.579 205.197H444.553C444.171 205.196 443.792 205.271 443.438 205.417C443.084 205.562 442.763 205.776 442.492 206.046C442.221 206.317 442.006 206.637 441.859 206.991C441.713 207.344 441.637 207.723 441.637 208.105C441.637 208.488 441.712 208.867 441.858 209.22C442.005 209.573 442.219 209.895 442.49 210.165C442.761 210.435 443.082 210.65 443.435 210.796C443.789 210.942 444.168 211.017 444.55 211.016H503.576Z" fill="#E4E4E4"/>
<path d="M503.576 193.874C504.347 193.872 505.085 193.565 505.63 193.02C506.174 192.474 506.48 191.735 506.48 190.964C506.48 190.193 506.174 189.454 505.63 188.909C505.085 188.363 504.347 188.056 503.576 188.054H444.553C444.171 188.054 443.792 188.128 443.438 188.274C443.084 188.42 442.763 188.634 442.492 188.904C442.221 189.174 442.006 189.495 441.859 189.848C441.713 190.201 441.637 190.58 441.637 190.963C441.637 191.345 441.712 191.724 441.858 192.077C442.005 192.431 442.219 192.752 442.49 193.022C442.761 193.293 443.082 193.507 443.435 193.653C443.789 193.799 444.168 193.874 444.55 193.874H503.576Z" fill="#E4E4E4"/>
<path d="M474.064 139.505C477.687 139.505 481.228 140.579 484.239 142.591C487.251 144.604 489.599 147.464 490.985 150.811C492.371 154.157 492.734 157.84 492.027 161.392C491.32 164.945 489.576 168.208 487.015 170.77C484.454 173.331 481.19 175.075 477.638 175.782C474.085 176.489 470.402 176.126 467.056 174.74C463.709 173.354 460.849 171.006 458.837 167.994C456.824 164.983 455.75 161.442 455.75 157.819C455.755 152.964 457.687 148.309 461.12 144.875C464.554 141.442 469.209 139.51 474.064 139.505Z" fill="#FF4500"/>
<path d="M325.952 301.473C329.909 301.473 333.118 298.264 333.118 294.307C333.118 290.35 329.909 287.141 325.952 287.141C321.995 287.141 318.786 290.35 318.786 294.307C318.786 298.264 321.995 301.473 325.952 301.473Z" fill="#E4E4E4"/>
<path d="M441.085 288.731C441.724 288.73 442.356 288.855 442.947 289.099C443.537 289.343 444.074 289.7 444.526 290.152C444.978 290.603 445.336 291.139 445.581 291.729C445.825 292.319 445.951 292.952 445.951 293.59C445.951 294.229 445.825 294.862 445.581 295.452C445.336 296.042 444.978 296.578 444.526 297.029C444.074 297.481 443.537 297.838 442.947 298.082C442.356 298.326 441.724 298.451 441.085 298.45H365.721C365.082 298.451 364.45 298.326 363.859 298.082C363.269 297.838 362.732 297.481 362.28 297.029C361.828 296.578 361.47 296.042 361.225 295.452C360.981 294.862 360.855 294.229 360.855 293.59C360.855 292.952 360.981 292.319 361.225 291.729C361.47 291.139 361.828 290.603 362.28 290.152C362.732 289.7 363.269 289.343 363.859 289.099C364.45 288.855 365.082 288.73 365.721 288.731H441.085ZM441.085 287.541H365.721C364.117 287.541 362.578 288.178 361.443 289.313C360.309 290.447 359.671 291.986 359.671 293.59C359.671 295.195 360.309 296.734 361.443 297.868C362.578 299.003 364.117 299.64 365.721 299.64H441.085C442.689 299.64 444.228 299.003 445.363 297.868C446.497 296.734 447.135 295.195 447.135 293.59C447.135 291.986 446.497 290.447 445.363 289.313C444.228 288.178 442.689 287.541 441.085 287.541Z" fill="#E4E4E4"/>
<path d="M411.348 299.64H354.615C353.01 299.64 351.471 299.003 350.337 297.868C349.202 296.734 348.565 295.195 348.565 293.59C348.565 291.986 349.202 290.447 350.337 289.313C351.471 288.178 353.01 287.541 354.615 287.541H411.348C412.952 287.541 414.491 288.178 415.625 289.313C416.76 290.447 417.397 291.986 417.397 293.59C417.397 295.195 416.76 296.734 415.625 297.868C414.491 299.003 412.952 299.64 411.348 299.64Z" fill="#E4E4E4"/>
<path d="M325.952 331.228C329.909 331.228 333.118 328.02 333.118 324.062C333.118 320.105 329.909 316.896 325.952 316.896C321.995 316.896 318.786 320.105 318.786 324.062C318.786 328.02 321.995 331.228 325.952 331.228Z" fill="#E4E4E4"/>
<path d="M441.085 318.486C441.724 318.485 442.356 318.61 442.947 318.854C443.537 319.098 444.074 319.456 444.526 319.907C444.978 320.358 445.336 320.894 445.581 321.484C445.825 322.074 445.951 322.707 445.951 323.346C445.951 323.984 445.825 324.617 445.581 325.207C445.336 325.797 444.978 326.333 444.526 326.784C444.074 327.236 443.537 327.594 442.947 327.837C442.356 328.081 441.724 328.206 441.085 328.205H365.721C365.082 328.206 364.45 328.081 363.859 327.837C363.269 327.594 362.732 327.236 362.28 326.784C361.828 326.333 361.47 325.797 361.225 325.207C360.981 324.617 360.855 323.984 360.855 323.346C360.855 322.707 360.981 322.074 361.225 321.484C361.47 320.894 361.828 320.358 362.28 319.907C362.732 319.456 363.269 319.098 363.859 318.854C364.45 318.61 365.082 318.485 365.721 318.486H441.085ZM441.085 317.296H365.721C364.117 317.296 362.578 317.933 361.443 319.068C360.309 320.202 359.671 321.741 359.671 323.346C359.671 324.95 360.309 326.489 361.443 327.623C362.578 328.758 364.117 329.395 365.721 329.395H441.085C442.689 329.395 444.228 328.758 445.363 327.623C446.497 326.489 447.135 324.95 447.135 323.346C447.135 321.741 446.497 320.202 445.363 319.068C444.228 317.933 442.689 317.296 441.085 317.296Z" fill="#E4E4E4"/>
<path d="M432.771 329.395H354.615C353.01 329.395 351.471 328.758 350.337 327.623C349.202 326.489 348.565 324.95 348.565 323.346C348.565 321.741 349.202 320.202 350.337 319.068C351.471 317.933 353.01 317.296 354.615 317.296H432.771C434.374 317.298 435.911 317.936 437.044 319.07C438.177 320.205 438.813 321.742 438.813 323.346C438.813 324.949 438.177 326.486 437.044 327.621C435.911 328.755 434.374 329.393 432.771 329.395Z" fill="#E4E4E4"/>
<path d="M325.952 360.983C329.909 360.983 333.118 357.775 333.118 353.817C333.118 349.86 329.909 346.652 325.952 346.652C321.995 346.652 318.786 349.86 318.786 353.817C318.786 357.775 321.995 360.983 325.952 360.983Z" fill="#E4E4E4"/>
<path d="M441.085 348.241C442.374 348.241 443.61 348.753 444.521 349.665C445.432 350.576 445.944 351.812 445.944 353.101C445.944 354.39 445.432 355.626 444.521 356.537C443.61 357.448 442.374 357.96 441.085 357.96H365.721C364.432 357.96 363.196 357.448 362.285 356.537C361.374 355.626 360.862 354.39 360.862 353.101C360.862 351.812 361.374 350.576 362.285 349.665C363.196 348.753 364.432 348.241 365.721 348.241H441.085ZM441.085 347.051H365.721C364.117 347.051 362.578 347.688 361.443 348.823C360.309 349.958 359.671 351.496 359.671 353.101C359.671 354.705 360.309 356.244 361.443 357.379C362.578 358.513 364.117 359.151 365.721 359.151H441.085C442.689 359.151 444.228 358.513 445.363 357.379C446.497 356.244 447.135 354.705 447.135 353.101C447.135 351.496 446.497 349.958 445.363 348.823C444.228 347.688 442.689 347.051 441.085 347.051Z" fill="#E4E4E4"/>
<path d="M441.353 359.151H354.615C353.01 359.151 351.471 358.513 350.337 357.379C349.202 356.244 348.565 354.705 348.565 353.101C348.565 351.496 349.202 349.958 350.337 348.823C351.471 347.688 353.01 347.051 354.615 347.051H441.353C442.958 347.051 444.496 347.688 445.631 348.823C446.766 349.958 447.403 351.496 447.403 353.101C447.403 354.705 446.766 356.244 445.631 357.379C444.496 358.513 442.958 359.151 441.353 359.151Z" fill="#E4E4E4"/>
<path d="M666.869 431.569C667.745 430.527 668.381 429.305 668.733 427.99C669.086 426.676 669.145 425.299 668.908 423.959C668.671 422.619 668.143 421.346 667.362 420.232C666.58 419.118 665.563 418.189 664.383 417.51L670.572 385.005L654.7 391.619L651.257 421.472C650.248 423.53 650.029 425.886 650.641 428.095C651.253 430.303 652.654 432.21 654.578 433.455C656.503 434.7 658.817 435.195 661.082 434.847C663.347 434.5 665.406 433.333 666.869 431.569Z" fill="#FFB7B7"/>
<path d="M746.005 631.024L732.566 631.023L726.173 579.187L746.008 579.188L746.005 631.024Z" fill="#FFB7B7"/>
<path d="M749.433 644.051L706.1 644.049V643.501C706.1 639.028 707.877 634.738 711.04 631.575C714.203 628.413 718.493 626.635 722.966 626.635H722.967L749.433 626.636L749.433 644.051Z" fill="#2F2E41"/>
<path d="M672.561 631.024L659.122 631.023L652.729 579.187L672.564 579.188L672.561 631.024Z" fill="#FFB7B7"/>
<path d="M672.7 644.051L629.367 644.049V643.501C629.368 639.028 631.145 634.738 634.308 631.575C637.471 628.413 641.76 626.635 646.234 626.635H646.235L672.701 626.636L672.7 644.051Z" fill="#2F2E41"/>
<path d="M671.46 412.093L658.306 442.398L647.455 616.58L674.86 615.484L682.344 532.451L705.433 458.495L718.707 540.944L724.188 613.291L746.863 614.273L755.9 412.093H671.46Z" fill="#2F2E41"/>
<path d="M737.214 262.557L699.089 263.511L676.705 275.001L675.477 359.777L661.517 418.308C661.517 418.308 748.741 424.311 760.799 415.541L746.548 348.674L765.661 276.41L737.214 262.557Z" fill="#3F3D56"/>
<path d="M680.778 276.326L676.705 275.001C676.705 275.001 663.787 283.292 665.016 303.336C665.016 303.336 664.532 313.709 664.994 320.612C665.524 328.529 649.648 407.21 649.648 407.21H672.667L682.533 335.958L680.778 276.326Z" fill="#3F3D56"/>
<path d="M765.064 432.665C764.188 431.623 763.552 430.401 763.2 429.087C762.847 427.772 762.788 426.396 763.025 425.055C763.262 423.715 763.79 422.443 764.571 421.328C765.353 420.214 766.37 419.285 767.55 418.606L761.361 386.101L777.233 392.716L780.676 422.568C781.685 424.626 781.904 426.982 781.292 429.191C780.68 431.399 779.279 433.307 777.355 434.551C775.43 435.796 773.116 436.291 770.851 435.944C768.586 435.596 766.527 434.43 765.064 432.665Z" fill="#FFB7B7"/>
<path d="M759.925 277.423L763.997 276.097C763.997 276.097 776.916 284.388 775.686 304.433C775.686 304.433 776.171 314.805 775.708 321.708C775.178 329.626 782.285 408.306 782.285 408.306H759.266L749.4 337.054L759.925 277.423Z" fill="#3F3D56"/>
<path d="M746.573 226.99C746.573 232.217 745.023 237.327 742.119 241.673C739.214 246.019 735.087 249.407 730.258 251.407C725.428 253.407 720.114 253.931 714.988 252.911C709.861 251.891 705.152 249.374 701.456 245.678C697.76 241.982 695.242 237.273 694.223 232.146C693.203 227.019 693.726 221.705 695.727 216.876C697.727 212.047 701.114 207.919 705.461 205.015C709.807 202.111 714.917 200.561 720.144 200.561C723.606 200.552 727.036 201.226 730.237 202.543C733.439 203.859 736.35 205.794 738.804 208.236C741.259 210.678 743.208 213.579 744.541 216.774C745.873 219.97 746.564 223.396 746.573 226.858C746.573 226.902 746.573 226.946 746.573 226.99Z" fill="#FFB7B7"/>
<path d="M693.803 191.491C696.899 184.834 702.89 186.15 708.13 188.407C714.765 186.935 721.076 182.528 728.226 185.134C735.268 195.377 758.912 192.363 753.882 209.039C753.876 213.035 761.401 210.709 760.087 217.253C764.074 229.847 745.698 253.699 735.149 248.676C737.758 243.894 743.717 233.034 734.678 231.957C715.233 250.05 732.672 197.503 708.239 212.785C700.15 220.188 689.074 198.896 693.803 191.491Z" fill="#2F2E41"/>
<path d="M863 645H1C0.734784 645 0.480429 644.895 0.292892 644.707C0.105356 644.52 0 644.265 0 644C0 643.735 0.105356 643.48 0.292892 643.293C0.480429 643.105 0.734784 643 1 643H863C863.265 643 863.52 643.105 863.707 643.293C863.895 643.48 864 643.735 864 644C864 644.265 863.895 644.52 863.707 644.707C863.52 644.895 863.265 645 863 645Z" fill="#CACACA"/>
</g>
<defs>
<clipPath id="clip0_29_2">
<rect width="864" height="645" fill="white"/>
</clipPath>
</defs>
</svg>
